# AST/ASF file generated using VICON BodyLanguage
# -----------------------------------------------
:version 1.10
:name VICON
:units
  mass 1.0
  length 0.45
  angle deg
:documentation
   .ast/.asf automatically generated from VICON data using
   VICON BodyBuilder and BodyLanguage model FoxedUp or BRILLIANT.MOD
:root
   order TX TY TZ RX RY RZ
   axis XYZ
   position 0 0 0  
   orientation 0 0 0 
:bonedata
  begin
     id 1 
     name lhipjoint
     direction 0.714689 -0.624256 0.315473 
     length 2.45343 
     axis 0 0 0  XYZ
  end
  begin
     id 2 
     name lfemur
     direction 0.34202 -0.939693 0  
     length 6.59069  
     axis 0 0 20  XYZ
    dof rx ry rz
    limits (-160.0 20.0)
           (-70.0 70.0)
           (-60.0 70.0)
  end
  begin
     id 3 
     name ltibia
     direction 0.34202 -0.939693 0   
     length 6.73476   
     axis 0 0 20   XYZ
    dof rx
    limits (-10.0 170.0)
  end
  begin
     id 4 
     name lfoot
     direction 0.0718085 -0.197292 0.977711   
     length 1.52607   
     axis -90 7.62852e-016 20   XYZ
    dof rx rz
    limits (-45.0 90.0)
           (-70.0 20.0)
  end
  begin
     id 5 
     name ltoes
     direction 1.53553e-011 -4.22024e-011 1   
     length 0.777832   
     axis -90 7.62852e-016 20   XYZ
    dof rx
    limits (-90.0 20.0)
  end
  begin
     id 6 
     name rhipjoint
     direction -0.727419 -0.612432 0.309497   
     length 2.50079  
     axis 0 0 0  XYZ 
  end
  begin
     id 7 
     name rfemur
     direction -0.34202 -0.939693 0   
     length 6.51665   
     axis 0 0 -20   XYZ
    dof rx ry rz
    limits (-160.0 20.0)
           (-70.0 70.0)
           (-70.0 60.0)
  end
  begin
     id 8 
     name rtibia
     direction -0.34202 -0.939693 0   
     length 6.48919   
     axis 0 0 -20   XYZ
    dof rx
    limits (-10.0 170.0)
 end
 begin
     id 9 
     name rfoot
     direction -0.112205 -0.308282 0.944655   
     length 1.68717  
     axis -90 -7.62852e-016 -20   XYZ
    dof rx rz
    limits (-45.0 90.0)
           (-20.0 70.0)
  end
  begin
     id 10 
     name rtoes
     direction -1.53583e-011 -4.21993e-011 1   
     length 0.846859   
     axis -90 -7.62852e-016 -20   XYZ
    dof rx
    limits (-90.0 20.0)
  end
  begin
     id 11 
     name lowerback
     direction -0.00119603 0.996364 -0.0851956   
     length 1.67242   
     axis 0 0 0   XYZ
    dof rx ry rz
    limits (-20.0 45.0)
           (-30.0 30.0)
           (-30.0 30.0)
  end
  begin
     id 12 
     name upperback
     direction -0.00531001 0.998318 0.0577248   
     length 1.64819   
     axis 0 0 0   XYZ
    dof rx ry rz
    limits (-20.0 45.0)
           (-30.0 30.0)
           (-30.0 30.0)
  end
  begin
     id 13 
     name thorax
     direction -0.00653676 0.995132 0.0983291   
     length 1.67429   
     axis 0 0 0   XYZ
    dof rx ry rz
    limits (-20.0 45.0)
           (-30.0 30.0)
           (-30.0 30.0)
  end
  begin
     id 14 
     name lowerneck
     direction 0.0141424 0.999886 0.00525412   
     length 1.59623   
     axis 0 0 0   XYZ
    dof rx ry rz
    limits (-20.0 45.0)
           (-30.0 30.0)
           (-30.0 30.0)
  end
  begin
     id 15 
     name upperneck
     direction -0.0640064 0.987178 -0.146232   
     length 1.59576   
     axis 0 0 0   XYZ
    dof rx ry rz
    limits (-20.0 45.0)
           (-30.0 30.0)
           (-30.0 30.0)
  end
  begin
     id 16
     name head
     direction -0.0222942 0.998496 -0.0500859  
     length 1.60959  
     axis 0 0 0   XYZ
    dof rx ry rz
    limits (-20.0 45.0)
           (-30.0 30.0)
           (-30.0 30.0)
  end
  begin
     id 17 
     name lclavicle
     direction 0.908549 0.392612 0.142806  
     length 2.80649  
     axis 0 0 0   XYZ
    dof ry rz
    limits (-20.0 10.0)
           (0.0 20.0)
  end
  begin
     id 18 
     name lhumerus
     direction 1 -4.48968e-011 1.08832e-028   
     length 4.2884   
     axis -180 -30 -90   XYZ
    dof rx ry rz
    limits (-60.0 90.0)
           (-90.0 90.0)
           (-90.0 90.0)
  end
  begin
     id 19
     name lradius
     direction 1 -4.48952e-011 -3.02642e-028   
     length 3.06552   
     axis -180 -30 -90   XYZ
    dof rx
    limits (-10.0 170.0)
  end
  begin
     id 20
     name lwrist
     direction 1 -4.49014e-011 1.58672e-027   
     length 1.53276   
     axis -1.65735e-015 90 90   XYZ
    dof ry
    limits (-180.0 0.0)
 end
  begin
     id 21 
     name lhand
     direction 1 -4.48928e-011 3.17344e-027   
     length 0.753045   
     axis -2.02492e-015 90 90   XYZ
    dof rx rz
    limits (-90.0 90.0)
           (-45.0 45.0)
  end
  begin
     id 22 
     name lfingers
     direction 1 -4.48958e-011 6.34687e-027   
     length 0.607124   
     axis -4.04985e-015 90 90   XYZ
    dof rx
    limits (0.0 90.0)
  end
  begin
     id 23
     name lthumb
     direction 0.707107 -6.34905e-011 0.707107   
     length 0.871712   
     axis -90 45 2.85299e-015   XYZ
    dof rx rz
    limits (-45.0 45.0)
           (-45.0 45.0)
  end
  begin
     id 24 
     name rclavicle
     direction -0.885098 0.45949 0.0739604   
     length 2.9478  
     axis 0 0 0   XYZ 
    dof ry rz
    limits (-10.0 20.0)
           (-20.0 0.0)
  end
  begin
     id 25 
     name rhumerus
     direction -1 -4.4898e-011 -2.61739e-027  
     length 4.52172   
     axis -180 30 90   XYZ
    dof rx ry rz
    limits (-90.0 60.0)
           (-90.0 90.0)
           (-90.0 90.0)
  end
  begin
     id 26 
     name rradius
     direction -1 -4.48945e-011 9.02552e-028   
     length 2.8914   
     axis -180 30 90   XYZ
    dof rx
    limits (-10.0 170.0)
  end
  begin
     id 27 
     name rwrist
     direction -1 -4.49018e-011 1.58672e-027   
     length 1.4457   
     axis -1.65735e-015 -90 -90   XYZ
    dof ry
    limits (-180.0 0.0)
  end
  begin
     id 28
     name rhand
     direction -1 -4.48825e-011 3.17344e-027   
     length 0.680541   
     axis -2.02492e-015 -90 -90   XYZ
    dof rx rz
    limits (-90.0 90.0)
           (-45.0 45.0)
  end
  begin
     id 29
     name rfingers
     direction -1 -4.49067e-011 6.34687e-027   
     length 0.54867   
     axis -4.04985e-015 -90 -90   XYZ
    dof rx
    limits (0.0 90.0)
  end
  begin
     id 30
     name rthumb
     direction -0.707107 -6.34833e-011 0.707107   
     length 0.787783   
     axis -90 -45 -2.85299e-015   XYZ
    dof rx rz
    limits (-45.0 45.0)
           (-45.0 45.0)
  end
:hierarchy
  begin
    root lhipjoint rhipjoint lowerback
    lhipjoint lfemur
    lfemur ltibia
    ltibia lfoot
    lfoot ltoes
    rhipjoint rfemur
    rfemur rtibia
    rtibia rfoot
    rfoot rtoes
    lowerback upperback
    upperback thorax
    thorax lowerneck lclavicle rclavicle
    lowerneck upperneck
    upperneck head
    lclavicle lhumerus
    lhumerus lradius
    lradius lwrist
    lwrist lhand lthumb
    lhand lfingers
    rclavicle rhumerus
    rhumerus rradius
    rradius rwrist
    rwrist rhand rthumb
    rhand rfingers
  end

#!OML:ASF E:\emotionWalksFemale\Project 1\Capture day 1\Session 1\Female1.ASF
:FULLY-SPECIFIED
:DEGREES
415
root 7.31929 15.0819 40.6264 180.373 2.28176 178.987
lowerback 9.36493 0.403949 -0.854101
upperback -4.15011 0.440071 -0.42486
thorax -9.703 0.271978 -0.054103
lowerneck -3.65141 -3.37148 -5.23889
upperneck 12.5079 -4.51006 6.76662
head 4.61046 -1.89735 2.72932
rclavicle 6.74004e-016 -2.6339e-015
rhumerus -44.0995 10.6079 -92.6454
rradius 33.7611
rwrist 17.9845
rhand -5.04986 -52.8133
rfingers 7.12502
rthumb 20.7455 -81.7244
lclavicle 6.74004e-016 -2.6339e-015
lhumerus -45.2425 -9.33671 93.455
lradius 36.5734
lwrist -15.3165
lhand -0.59495 -34.4797
lfingers 7.12502
lthumb 25.0204 -6.09834
rfemur -28.7533 11.2965 19.6359
rtibia 31.6558
rfoot -18.3684 -26.2558
rtoes 11.9129
lfemur 3.33646 -13.0471 -33.0239
ltibia 17.4762
lfoot -23.3106 17.9412
ltoes -26.2504
416
root 7.32326 15.0835 40.585 180.368 1.93442 179.099
lowerback 9.50536 0.348087 -0.778026
upperback -4.20524 0.37956 -0.36169
thorax -9.84629 0.240808 -0.0202791
lowerneck -3.58602 -3.43231 -5.16911
upperneck 12.5758 -4.57074 6.52481
head 4.61752 -1.93647 2.6403
rclavicle 3.71945e-015 2.03754e-015
rhumerus -44.2164 10.5065 -92.6393
rradius 33.466
rwrist 17.2263
rhand -6.88103 -51.2928
rfingers 7.12502
rthumb 18.9852 -80.3862
lclavicle 3.71945e-015 2.03754e-015
lhumerus -45.3477 -9.44359 93.6321
lradius 36.4949
lwrist -15.6669
lhand -1.98399 -34.4787
lfingers 7.12502
lthumb 23.6888 -5.91839
rfemur -28.6954 11.8621 19.4672
rtibia 30.6223
rfoot -18.5852 -26.3995
rtoes 10.636
lfemur 3.63271 -13.01 -32.8535
ltibia 17.2158
lfoot -23.1164 17.4695
ltoes -25.1647
417
root 7.3262 15.0848 40.5391 180.384 1.55383 179.18
lowerback 9.49019 0.318349 -0.686433
upperback -4.22664 0.355867 -0.329576
thorax -9.86023 0.225112 -0.0333537
lowerneck -3.20521 -3.5155 -5.27066
upperneck 12.3813 -4.6757 6.49808
head 4.50221 -2.00221 2.64829
rclavicle 3.05942e-015 6.21202e-016
rhumerus -44.228 10.1826 -92.4974
rradius 33.3732
rwrist 17.0742
rhand -6.01923 -51.6109
rfingers 7.12502
rthumb 19.8139 -80.621
lclavicle 3.05942e-015 6.21202e-016
lhumerus -45.2823 -9.40804 93.6609
lradius 36.4165
lwrist -15.5727
lhand -1.96912 -34.5423
lfingers 7.12502
lthumb 23.703 -5.98382
rfemur -28.5867 12.3718 19.265
rtibia 29.5656
rfoot -17.8763 -27.5986
rtoes 9.65661
lfemur 3.81954 -12.9621 -32.7234
ltibia 17.1564
lfoot -22.8353 17.1325
ltoes -24.7093
418
root 7.33423 15.0832 40.4898 180.459 1.35588 179.067
lowerback 9.31254 0.347259 -0.873159
upperback -4.2079 0.370446 -0.358656
thorax -9.7357 0.243469 0.0393955
lowerneck -3.30524 -3.62782 -5.25214
upperneck 12.4086 -4.82788 6.49143
head 4.5363 -2.07503 2.6331
rclavicle -8.10669e-016 -1.98785e-016
rhumerus -44.2311 10.0386 -92.5177
rradius 33.5353
rwrist 17.1337
rhand -3.71154 -53.2349
rfingers 7.12502
rthumb 22.0309 -82
lclavicle -8.10669e-016 -1.98785e-016
lhumerus -45.2552 -9.4295 93.6089
lradius 36.5606
lwrist -15.4114
lhand -1.74303 -34.7048
lfingers 7.12502
lthumb 23.9198 -6.17463
rfemur -28.6536 13.1305 18.8043
rtibia 28.6606
rfoot -17.3015 -28.5252
rtoes 8.08656
lfemur 4.05845 -12.6967 -32.7707
ltibia 16.9263
lfoot -22.6538 16.7638
ltoes -25.209
419
root 7.33996 15.0772 40.442 180.459 1.16962 178.916
lowerback 9.20909 0.323541 -1.03601
upperback -4.13434 0.314227 -0.39255
thorax -9.5941 0.22418 0.10603
lowerneck -3.45699 -3.6675 -5.3701
upperneck 12.5124 -4.87867 6.55279
head 4.60109 -2.09825 2.6663
rclavicle -5.63741e-016 4.72114e-015
rhumerus -44.3189 10.3934 -92.7778
rradius 33.9313
rwrist 17.2438
rhand -1.37494 -55.6879
rfingers 7.12502
rthumb 24.2728 -84.1714
lclavicle -5.63741e-016 4.72114e-015
lhumerus -45.2424 -9.42978 93.597
lradius 36.6525
lwrist -15.4064
lhand -2.50179 -34.902
lfingers 7.12502
lthumb 23.192 -6.27831
rfemur -28.6441 13.9755 18.2641
rtibia 27.6771
rfoot -16.9377 -29.4336
rtoes 7.59855
lfemur 4.21153 -12.7369 -32.9561
ltibia 17.0884
lfoot -22.8408 16.6346
ltoes -25.3977
420
root 7.34072 15.0695 40.3873 180.275 1.27296 178.545
lowerback 9.21158 0.402155 -1.38546
upperback -4.02507 0.365496 -0.46414
thorax -9.47877 0.266109 0.218383
lowerneck -3.44679 -3.66955 -5.58599
upperneck 12.4592 -4.88083 6.67159
head 4.59129 -2.10532 2.73856
rclavicle 5.8657e-015 3.59055e-015
rhumerus -44.3695 10.5005 -92.7934
rradius 34.2319
rwrist 17.963
rhand -3.83149 -54.8424
rfingers 7.12502
rthumb 21.9158 -83.6211
lclavicle 5.8657e-015 3.59055e-015
lhumerus -45.0929 -9.43767 93.697
lradius 36.5366
lwrist -15.1309
lhand -2.87605 -35.1127
lfingers 7.12502
lthumb 22.8329 -6.44424
rfemur -28.534 14.7042 17.6225
rtibia 27.012
rfoot -17.241 -29.8201
rtoes 7.62786
lfemur 4.76115 -12.6955 -33.5102
ltibia 16.8836
lfoot -22.8068 16.7957
ltoes -26.3886
421
root 7.34951 15.0816 40.3603 180.979 1.21548 179.476
lowerback 8.90494 0.381498 -0.494281
upperback -4.29088 0.488746 -0.215808
thorax -9.58421 0.284589 -0.0395729
lowerneck -3.29259 -3.69068 -5.64539
upperneck 12.2742 -4.91235 6.69839
head 4.51289 -2.12942 2.75695
rclavicle -2.05773e-015 -1.97542e-015
rhumerus -44.3642 10.1622 -92.6774
rradius 34.2408
rwrist 18.5932
rhand -3.9595 -54.0237
rfingers 7.12502
rthumb 21.7929 -82.8167
lclavicle -2.05773e-015 -1.97542e-015
lhumerus -45.0368 -9.65023 93.8587
lradius 36.3966
lwrist -15.4492
lhand -3.92417 -34.8993
lfingers 7.12502
lthumb 21.8268 -6.11023
rfemur -29.1947 15.5435 18.1616
rtibia 26.1506
rfoot -19.0449 -30.0165
rtoes 12.3456
lfemur 3.98994 -12.4599 -32.2107
ltibia 16.9762
lfoot -22.6434 16.3687
ltoes -27.3555
